<svg width="98" height="72" viewBox="0 0 98 72" fill="none" xmlns="http://www.w3.org/2000/svg">
<path d="M63.6592 12.6442L20.2426 6.31981C16.472 5.77056 12.8727 8.08188 11.8033 11.7391L2.65515 43.025C1.45119 47.1424 3.87026 51.4443 8.01394 52.5546L73.2042 70.0223C78.9789 71.5696 84.2149 66.1879 82.5099 60.4579L69.8843 18.0287C69.0351 15.1746 66.6058 13.0734 63.6592 12.6442Z" fill="#9F60A6" stroke="black" stroke-width="3" stroke-linecap="round" stroke-linejoin="round"/>
<path d="M25.1767 23.1117L25.0611 21.8338C25.0476 21.6945 25.0173 21.6016 24.9704 21.5551C24.9314 21.5107 24.8328 21.4673 24.6745 21.4249L22.5616 20.8587C22.4033 20.8163 22.2851 20.8143 22.2069 20.8528C22.1367 20.8933 22.0212 21.0235 21.8605 21.2434L21.2714 22.0652C21.2164 22.1438 21.1783 22.2226 21.1571 22.3018C21.0892 22.555 21.2096 22.723 21.5183 22.8057C21.5974 22.8269 21.7103 22.8486 21.857 22.871C22.0116 22.8954 22.1245 22.9172 22.1957 22.9363C22.5202 23.0232 22.6453 23.2052 22.5711 23.4822C22.5011 23.7433 22.2881 23.8262 21.932 23.7308C21.8686 23.7138 21.7837 23.6826 21.6772 23.6371L21.1059 23.3949C20.9994 23.3494 20.8195 23.2927 20.5662 23.2249C20.2892 23.1507 20.0932 23.1066 19.9782 23.0928L19.4606 23.0304C19.2305 23.0027 19.064 22.975 18.9612 22.9475C18.6525 22.8648 18.5332 22.6929 18.6032 22.4317C18.6774 22.1547 18.8649 22.0565 19.1656 22.1371C19.2289 22.1541 19.2753 22.1707 19.3048 22.1871L19.4592 22.2285C19.6728 22.2857 19.8573 22.2461 20.0126 22.1096C20.0771 22.059 20.206 21.8943 20.3995 21.6153L24.2073 16.2361C24.423 15.9376 24.7168 15.8382 25.0888 15.9379C25.4528 16.0354 25.6496 16.2663 25.6793 16.6305L26.2265 23.0876C26.2613 23.4956 26.3183 23.7738 26.3972 23.9222C26.4762 24.0705 26.6186 24.1723 26.8244 24.2274C26.8877 24.2444 26.9362 24.2532 26.97 24.2537C27.1958 24.2973 27.3087 24.3191 27.3087 24.3191C27.6094 24.3996 27.7259 24.5665 27.658 24.8198C27.5859 25.0888 27.3995 25.1831 27.0988 25.1025C27.0117 25.0792 26.8991 25.0405 26.7609 24.9865C26.2772 24.7975 25.9127 24.6702 25.6673 24.6044C25.3745 24.526 24.8912 24.4304 24.2174 24.3177C24.047 24.289 23.9183 24.263 23.8312 24.2397C23.5147 24.1549 23.3925 23.9779 23.4646 23.7089C23.5366 23.4398 23.7468 23.3519 24.095 23.4452C24.1662 23.4643 24.267 23.4998 24.3973 23.5517C24.5355 23.6056 24.6402 23.6422 24.7114 23.6613C24.9726 23.7312 25.1318 23.6594 25.189 23.4457C25.1975 23.4141 25.1934 23.3027 25.1767 23.1117ZM24.9709 20.4611L24.7805 16.8986L22.8105 19.8822C22.782 19.9254 22.7666 19.951 22.7645 19.9589C22.7454 20.0301 22.7952 20.0817 22.9139 20.1135L24.8013 20.6192C24.8963 20.6446 24.9523 20.6257 24.9692 20.5624C24.9735 20.5466 24.974 20.5128 24.9709 20.4611ZM36.2931 21.0393C36.0768 21.8465 35.4651 22.2933 34.4581 22.3797C34.7629 22.5717 35.0052 22.7596 35.1849 22.9434C35.7262 23.4871 35.8973 24.1309 35.6979 24.8748C35.5029 25.6029 35.0661 26.1092 34.3876 26.3939C33.7112 26.6707 32.9022 26.683 31.9604 26.4306C31.6201 26.3394 31.1942 26.2041 30.6825 26.0246C30.1708 25.8451 29.7922 25.7224 29.5469 25.6567C29.3333 25.5994 29.1283 25.5572 28.932 25.5301L28.355 25.4518C28.3392 25.4476 28.3104 25.4441 28.2687 25.4414C28.2291 25.4308 28.2014 25.4234 28.1856 25.4192C27.8475 25.3201 27.7155 25.132 27.7897 24.8551C27.8575 24.6018 28.0141 24.5081 28.2595 24.5738C28.3228 24.5908 28.4264 24.6313 28.5704 24.6953C28.6691 24.7387 28.75 24.7689 28.8133 24.7858C29.2169 24.894 29.4972 24.6552 29.6541 24.0696L30.9327 19.2977C31.0918 18.7042 30.9695 18.3533 30.5659 18.2452C30.4947 18.2261 30.4095 18.2118 30.3103 18.2021C30.1614 18.1877 30.0514 18.171 29.9802 18.1519C29.7349 18.0861 29.6462 17.9267 29.714 17.6734C29.7882 17.3964 30.0073 17.3067 30.3714 17.4043L30.5257 17.4456L31.0851 17.6846C31.2449 17.7528 31.4673 17.8251 31.7521 17.9015C32.0529 17.9821 32.4866 18.0728 33.0532 18.1738C33.4337 18.2418 33.8375 18.333 34.2649 18.4475C35.0642 18.6617 35.6398 18.9983 35.9918 19.4573C36.3538 19.9106 36.4542 20.4379 36.2931 21.0393ZM31.6099 20.3316C31.4975 20.751 31.4632 21.0217 31.5068 21.1436C31.5605 21.2598 31.7575 21.3635 32.0978 21.4547L32.7625 21.6328C34.1633 22.0081 34.9855 21.7407 35.2294 20.8307C35.452 19.9997 34.9857 19.4295 33.8303 19.1199C33.0231 18.9036 32.5107 18.8215 32.2932 18.8734C32.0837 18.9275 31.9216 19.1683 31.8071 19.5956L31.6099 20.3316ZM30.9642 22.7413L30.6112 24.0589C30.4734 24.5733 30.4756 24.9132 30.6179 25.0785C30.7602 25.2439 31.2191 25.4304 31.9946 25.6383C33.4745 26.0348 34.3628 25.6791 34.6597 24.5712C34.9332 23.5503 34.3578 22.849 32.9333 22.4674L31.9481 22.2034C31.5207 22.0889 31.25 22.1181 31.1358 22.2911C31.0787 22.3775 31.0215 22.5276 30.9642 22.7413ZM39.4843 28.6629C38.4317 28.3809 37.6986 27.7773 37.2849 26.8522C36.8791 25.9292 36.8501 24.8188 37.1979 23.521C37.5499 22.2073 38.1342 21.2612 38.9508 20.6828C39.7695 20.0964 40.7209 19.9484 41.8051 20.2389C42.8418 20.5167 43.5672 21.1012 43.9815 21.9926C44.4037 22.886 44.4483 23.954 44.1154 25.1964C43.7549 26.5417 43.1561 27.5263 42.3189 28.1502C41.4896 28.7761 40.5447 28.9471 39.4843 28.6629ZM41.5405 21.084C40.7807 20.8805 40.1127 21.0153 39.5364 21.4885C38.96 21.9618 38.5298 22.7286 38.2457 23.789C37.9573 24.8653 37.9433 25.7564 38.2037 26.4623C38.4662 27.1603 38.9733 27.61 39.7251 27.8114C40.4611 28.0086 41.1244 27.8598 41.715 27.365C42.3157 26.8643 42.757 26.0877 43.039 25.0352C43.3231 23.9748 43.3358 23.1046 43.077 22.4245C42.8202 21.7365 42.3081 21.2897 41.5405 21.084ZM47.5517 24.0179L47.3244 24.7713L47.0193 25.7201L46.5295 27.5481C46.3811 28.1021 46.3323 28.5216 46.3831 28.8066C46.4419 29.0938 46.6223 29.3542 46.9244 29.5878C47.2049 29.8071 47.5114 29.9613 47.8438 30.0504C48.279 30.167 48.6732 30.1836 49.0264 30.1001C49.3795 30.0166 49.6367 29.8481 49.798 29.5944C49.9693 29.335 50.1172 28.9887 50.2418 28.5555L51.0829 25.5112C51.2441 24.9097 51.3274 24.5673 51.3327 24.484C51.3697 24.0613 51.2219 23.8054 50.8896 23.7164C50.8342 23.7015 50.7529 23.6882 50.6458 23.6765C50.4891 23.6599 50.3791 23.6432 50.3157 23.6262C50.2129 23.5986 50.1325 23.5347 50.0745 23.4344C50.0245 23.3361 50.0133 23.2356 50.0409 23.1327C50.1172 22.8478 50.3295 22.752 50.6777 22.8453C50.7331 22.8602 50.7874 22.879 50.8407 22.9017L51.5156 23.1843C51.6833 23.2547 51.878 23.3196 52.0996 23.379C52.3132 23.4362 52.4945 23.4721 52.6433 23.4865L53.176 23.5402C53.3248 23.5546 53.4229 23.5682 53.4704 23.5809C53.8028 23.67 53.9329 23.849 53.8608 24.1181C53.7887 24.3872 53.5904 24.4782 53.266 24.3913L53.1354 24.3563C53.1138 24.342 53.0753 24.3275 53.0199 24.3126C52.7825 24.249 52.6043 24.3285 52.4853 24.551C52.3662 24.7736 52.1753 25.3755 51.9123 26.3568L51.3557 28.4342C51.2179 28.9486 51.1024 29.3163 51.0093 29.5373C50.8399 29.916 50.6132 30.2242 50.3289 30.4619C49.6696 31.0231 48.7742 31.1521 47.6425 30.8489C46.2497 30.4757 45.4734 29.78 45.3137 28.7618C45.2613 28.4509 45.3136 28.0026 45.4705 27.417C45.5468 27.1321 45.6711 26.7159 45.8432 26.1683C46.0175 25.6128 46.1428 25.1926 46.2192 24.9077L46.3877 24.2786C46.5425 23.7009 46.6255 23.3753 46.6367 23.302C46.6979 22.8519 46.6019 22.5929 46.3487 22.5251C46.3329 22.5208 46.3052 22.5134 46.2656 22.5028C46.2239 22.5001 46.1862 22.4985 46.1524 22.4979C46.1207 22.4894 46.0693 22.4757 45.9981 22.4566C45.6657 22.3675 45.5356 22.1885 45.6077 21.9194C45.6798 21.6503 45.8662 21.5561 46.1669 21.6367C46.2935 21.6706 46.4249 21.7185 46.5609 21.7804C46.9317 21.9476 47.2833 22.0758 47.6157 22.1648C47.956 22.256 48.3573 22.3254 48.8195 22.3729C48.9187 22.3825 49.0237 22.4021 49.1345 22.4318C49.459 22.5188 49.5851 22.6968 49.513 22.9658C49.4409 23.2349 49.2664 23.3323 48.9894 23.2581C48.9261 23.2411 48.8333 23.2078 48.7109 23.158C48.5906 23.1004 48.4989 23.063 48.4356 23.0461C48.1823 22.9782 47.9761 23.0672 47.817 23.3129C47.7456 23.421 47.6572 23.656 47.5517 24.0179ZM56.548 31.2758C56.389 31.8694 56.5113 32.2202 56.9149 32.3283C56.9782 32.3453 57.0753 32.3628 57.2061 32.3809C57.3391 32.3911 57.4373 32.4047 57.5006 32.4217C57.6034 32.4492 57.6799 32.5121 57.7299 32.6103C57.79 32.7028 57.8062 32.8004 57.7786 32.9033C57.7044 33.1803 57.4893 33.271 57.1331 33.1756C57.1173 33.1714 57.0936 33.165 57.0619 33.1565C57.0245 33.138 56.9978 33.1266 56.982 33.1224L56.4226 32.8835C56.2095 32.7924 55.9645 32.7098 55.6875 32.6356C55.3868 32.555 55.1174 32.4998 54.8795 32.47L54.2637 32.394C54.2399 32.3877 54.2112 32.3842 54.1774 32.3836C54.1378 32.373 54.1101 32.3656 54.0943 32.3614C53.7461 32.2681 53.6091 32.0829 53.6833 31.806C53.7512 31.5527 53.9117 31.46 54.165 31.5279C54.2283 31.5448 54.3201 31.5822 54.4403 31.6398C54.5627 31.6896 54.6555 31.7229 54.7188 31.7399C55.1145 31.8459 55.3919 31.6022 55.5509 31.0087L55.7736 30.1777L56.0653 29.1363L56.3357 28.1273L56.8423 26.1892C56.9928 25.6274 56.7793 25.269 56.2016 25.1143L55.8336 25.0157C55.2638 24.863 54.9047 25.0636 54.7563 25.6176C54.7032 25.8154 54.6711 25.951 54.66 26.0244L54.5898 26.4763C54.5786 26.5496 54.5561 26.6496 54.5221 26.7762C54.3885 27.2748 54.1674 27.4827 53.8588 27.4C53.566 27.3216 53.4684 27.1003 53.5659 26.7363C53.5935 26.6334 53.6491 26.4575 53.7328 26.2085C53.8583 25.835 53.9348 25.5968 53.9624 25.4939C54.0154 25.2961 54.0626 25.0882 54.1041 24.8703C54.1848 24.4424 54.2167 24.2601 54.1997 24.3234C54.2888 23.991 54.4837 23.8651 54.7844 23.9457C54.8952 23.9754 55.1492 24.0562 55.5464 24.1881C55.586 24.1987 55.9083 24.2935 56.5134 24.4726L57.8603 24.859C58.0186 24.9014 58.4441 25.0069 59.1368 25.1756C59.2872 25.2158 59.5475 25.2729 59.9179 25.3467C60.2487 25.4099 60.5052 25.4659 60.6872 25.5146C61.0829 25.6207 61.2372 25.8359 61.1503 26.1604L61.1439 26.1841C61.1227 26.2632 61.0716 26.4065 60.9906 26.6138C60.9176 26.8232 60.8363 27.0474 60.7468 27.2864L60.7118 27.4169C60.68 27.5356 60.642 27.7248 60.5979 27.9844C60.5405 28.3252 60.5012 28.5352 60.48 28.6144C60.3931 28.9388 60.1953 29.0597 59.8867 28.977C59.5859 28.8964 59.4886 28.6583 59.5946 28.2626C59.6328 28.1202 59.7009 27.9136 59.7988 27.643C59.8989 27.3645 59.968 27.154 60.0062 27.0116C60.1525 26.4655 59.9131 26.1087 59.2879 25.9412L58.9555 25.8522C58.6627 25.7737 58.436 25.7808 58.2755 25.8735C58.1171 25.9583 57.9918 26.141 57.8996 26.4217L57.6413 27.2431L56.548 31.2758Z" fill="white"/>
<path d="M13.2863 43.4852L16.8474 44.4394L18.3682 38.7638L18.5908 38.8235C20.1265 39.235 21.5339 38.968 22.4716 38.0503C23.1597 37.3521 23.395 36.6518 23.8602 34.9157C24.3254 33.1797 24.4717 32.4555 24.225 31.5068C23.8717 30.2432 22.7804 29.3305 21.2447 28.919L17.4609 27.9052L13.2863 43.4852ZM19.0242 36.3155L20.3661 31.3077C20.5664 31.3614 20.6598 31.458 20.7174 31.6881C20.7647 31.8677 20.6378 32.4301 20.2323 33.9436C19.8268 35.4571 19.6494 36.0298 19.5187 36.1618C19.3537 36.3323 19.2023 36.3633 19.0242 36.3155ZM21.904 45.7943L28.0915 47.4522L28.986 44.1137L26.3597 43.4099L27.1052 40.6278L29.5089 41.2719L30.4035 37.9333L27.9997 37.2892L28.7452 34.5071L31.3715 35.2108L32.2661 31.8722L26.0786 30.2143L21.904 45.7943ZM32.8754 48.9726C34.9675 49.5332 36.2685 48.9514 37.0877 47.7635C37.5174 47.1391 37.8152 46.384 38.9841 42.0216C40.153 37.6592 40.2727 36.8563 40.2127 36.1008C40.0972 34.6624 39.2614 33.5081 37.1693 32.9475C35.0771 32.3869 33.7762 32.9687 32.9569 34.1566C32.5272 34.781 32.2294 35.5361 31.0605 39.8985C29.8916 44.2609 29.7719 45.0637 29.8319 45.8193C29.9474 47.2577 30.7832 48.412 32.8754 48.9726ZM34.733 40.8825C36.0152 36.0972 36.103 35.8584 36.1833 35.7368C36.2636 35.6151 36.3423 35.5885 36.4536 35.6183C36.5649 35.6482 36.6198 35.7106 36.6285 35.856C36.6372 36.0015 36.5939 36.2523 35.3117 41.0376C34.0294 45.8229 33.9416 46.0617 33.8613 46.1833C33.781 46.305 33.7023 46.3316 33.591 46.3018C33.4797 46.2719 33.4249 46.2095 33.4162 46.0641C33.4074 45.9186 33.4508 45.6678 34.733 40.8825ZM38.2265 50.1679L41.7876 51.1221L43.3084 45.4465L43.5309 45.5062C45.0667 45.9177 46.4741 45.6507 47.4118 44.733C48.0998 44.0348 48.3352 43.3345 48.8004 41.5984C49.2655 39.8624 49.4119 39.1382 49.1651 38.1894C48.8119 36.9259 47.7205 36.0132 46.1848 35.6017L42.4011 34.5879L38.2265 50.1679ZM43.9644 42.9982L45.3062 37.9904C45.5065 38.0441 45.5999 38.1406 45.6575 38.3708C45.7048 38.5504 45.578 39.1128 45.1724 40.6263C44.7669 42.1398 44.5896 42.7125 44.4588 42.8445C44.2939 43.015 44.1424 43.0459 43.9644 42.9982ZM46.8441 52.477L53.2542 54.1946L54.1488 50.856L51.2998 50.0926L54.5799 37.8512L51.0188 36.897L46.8441 52.477ZM54.375 54.4949L60.5625 56.1528L61.4571 52.8142L58.8307 52.1105L59.5762 49.3284L61.98 49.9725L62.8746 46.6339L60.4708 45.9898L61.2163 43.2077L63.8426 43.9114L64.7372 40.5728L58.5497 38.9149L54.375 54.4949Z" fill="white"/>
</svg>
