<svg width="93" height="83" viewBox="0 0 93 83" fill="none" xmlns="http://www.w3.org/2000/svg">
<path d="M8.10335 64.3196L69.4241 80.7505C73.5022 81.8432 77.694 79.4231 78.7868 75.3449L89.4115 35.6929C90.1877 32.7961 89.1984 29.713 86.8816 27.8087L69.7225 13.7044C67.8032 12.1268 65.237 11.5803 62.8415 12.239L17.1166 24.8117C14.7335 25.4669 12.8142 27.2339 11.9646 29.5548L2.90321 54.3076C1.3595 58.5245 3.76576 63.1574 8.10335 64.3196Z" fill="#75B835" stroke="black" stroke-width="3" stroke-linecap="round" stroke-linejoin="round"/>
<path d="M11.5045 57.9844L14.4202 58.7656L18.5948 43.1856L15.6791 42.4044L11.5045 57.9844ZM17.2314 59.5189L19.8132 60.2107L23.4034 46.8119L23.8708 46.9371L22.8891 51.135L21.6828 60.7116L25.0214 61.6062L28.765 52.7094L29.9915 48.5772L30.4811 48.7084L26.891 62.1072L29.4505 62.793L33.6252 47.213L29.0179 45.9785L25.0938 55.638L24.1591 59.0374L23.6917 58.9121L24.5819 55.5008L26.0355 45.1794L21.406 43.9389L17.2314 59.5189ZM32.261 63.5461L35.1767 64.3273L36.7869 58.3179L37.6772 58.5564C39.569 59.0634 41.269 58.6839 42.44 57.5187C43.0315 56.9138 43.5149 56.0891 43.7952 55.043C44.0695 54.0192 44.0632 53.0633 43.8534 52.2438C43.4219 50.6491 42.1335 49.4928 40.2416 48.9859L36.4356 47.9661L32.261 63.5461ZM37.5205 55.5803L38.6178 51.485L39.4636 51.7116C40.2203 51.9143 40.7095 52.4033 40.8557 53.015C40.9666 53.4025 40.9542 53.8047 40.835 54.2499C40.7097 54.7173 40.5193 55.0718 40.2295 55.352C39.7971 55.8086 39.123 56.0097 38.3662 55.8069L37.5205 55.5803ZM41.2724 65.9606L44.3884 66.7956L46.1924 62.5557L48.9078 63.2832L48.3279 67.8512L51.4439 68.6861L53.2147 52.462L47.8508 51.0247L41.2724 65.9606ZM47.3103 59.8972L49.3361 55.0964L49.8041 53.5281L50.2937 53.6593L49.9148 55.2515L49.2689 60.422L47.3103 59.8972ZM57.2798 70.6315C60.3735 71.4605 62.0911 70.0361 63.254 65.696L60.2493 64.8909C59.5992 67.3169 58.9481 68.1444 57.9466 67.876C57.3901 67.7269 57.1175 67.3199 57.0456 66.6088C56.9666 65.6573 57.3173 64.0814 57.86 62.056C58.3729 60.1419 58.8408 58.5736 59.3791 57.8113C59.843 57.1484 60.339 56.8996 61.029 57.0845C62.0751 57.3648 62.203 58.401 61.5589 60.8047L61.5469 60.8492L64.5739 61.6603L64.5799 61.6381C65.7011 57.4537 64.9898 55.2116 61.8516 54.3707C59.6036 53.7684 58.1007 54.3915 56.9603 56.0658C56.0786 57.3086 55.4056 59.1082 54.8331 61.2449C54.2605 63.3816 53.9436 65.2767 54.0858 66.7938C54.2362 68.8141 55.2321 70.0828 57.2798 70.6315ZM65.92 72.565L68.8357 73.3462L72.2768 60.5039L75.2815 61.309L76.0151 58.5713L67.09 56.1799L66.3564 58.9175L69.3611 59.7226L65.92 72.565Z" fill="white"/>
<path d="M23.7508 32.8345L23.9694 39.3308L27.6899 33.4701C27.8819 33.1653 28.1044 33.0469 28.3577 33.1147L28.417 33.1306C28.4962 33.1518 28.5959 33.1913 28.7161 33.2489C28.8638 33.3309 28.9614 33.3782 29.0088 33.391C29.1312 33.4407 29.3032 33.4953 29.5248 33.5547C29.7622 33.6183 29.9513 33.6562 30.0922 33.6685L30.5268 33.7086C30.5526 33.7071 30.6012 33.7159 30.6724 33.7349C31.0364 33.8325 31.1813 34.0197 31.1071 34.2967C31.0393 34.55 30.8787 34.6426 30.6255 34.5748C30.5622 34.5578 30.4693 34.5245 30.347 34.4747C30.2346 34.4192 30.1468 34.3829 30.0835 34.3659C29.6799 34.2578 29.3986 34.5005 29.2395 35.094L29.0169 35.925L28.7251 36.9664L28.4548 37.9754L27.9641 39.8541C27.8051 40.4476 27.9234 40.7974 28.3191 40.9034C28.3982 40.9246 28.4884 40.9361 28.5898 40.9378C28.7681 40.9686 28.8731 40.9882 28.9047 40.9967C29.158 41.0646 29.2507 41.2251 29.1828 41.4784C29.1065 41.7632 28.8982 41.8601 28.5579 41.7689C28.5737 41.7732 28.5165 41.7493 28.3862 41.6975C27.8571 41.4878 27.4026 41.3321 27.0228 41.2304C26.6509 41.1307 26.2873 41.063 25.9322 41.0272C25.7834 41.0128 25.6536 40.9907 25.5428 40.961C25.2342 40.8783 25.1148 40.7064 25.1848 40.4453C25.2569 40.1762 25.4512 40.0841 25.7678 40.1689C25.8469 40.1901 25.9052 40.2099 25.9426 40.2285C26.1125 40.2909 26.2133 40.3264 26.2449 40.3349C26.5298 40.4112 26.7874 40.1622 27.0176 39.5878C27.0674 39.4654 27.1834 39.0639 27.3658 38.3833C27.4358 38.1222 27.5415 37.7434 27.683 37.2469L27.993 36.185L28.556 34.0839C28.5687 34.0364 28.5553 34.0074 28.5157 33.9968C28.492 33.9904 28.4619 34.0078 28.4254 34.0489L24.4251 40.2417C24.2496 40.517 23.9877 40.6079 23.6395 40.5146C23.4337 40.4595 23.2879 40.3865 23.202 40.2956C23.1219 40.2148 23.0785 40.0759 23.0719 39.8791L22.7395 32.5254C22.7285 32.4715 22.7071 32.4403 22.6755 32.4319C22.6438 32.4234 22.6216 32.4429 22.6089 32.4904L21.2011 38.0292C21.0542 38.609 21.1351 38.9403 21.4437 39.023C21.5308 39.0463 21.6537 39.0623 21.8126 39.0709L21.955 39.1091C22.2636 39.1918 22.3809 39.3716 22.3066 39.6486C22.2324 39.9256 22.037 40.0217 21.7205 39.9368C21.6651 39.922 21.5841 39.8918 21.4776 39.8463C21.3098 39.7759 21.1313 39.6984 20.9419 39.6137C20.79 39.5476 20.5914 39.4816 20.3461 39.4159C19.9108 39.2993 19.6267 39.2359 19.4937 39.2257L18.9697 39.1871C18.9539 39.1828 18.9291 39.1804 18.8953 39.1798C18.8637 39.1714 18.8399 39.165 18.8241 39.1608C18.4601 39.0632 18.3152 38.876 18.3894 38.599C18.4191 38.4882 18.4791 38.4067 18.5694 38.3546C18.6618 38.2945 18.7595 38.2783 18.8623 38.3059C18.9494 38.3292 19.0491 38.3686 19.1614 38.4242C19.2738 38.4797 19.3576 38.5149 19.413 38.5298C19.8166 38.6379 20.0979 38.3952 20.257 37.8017L21.5356 33.0298C21.6946 32.4362 21.5724 32.0854 21.1688 31.9773C21.1055 31.9603 21.0073 31.9467 20.8743 31.9365C20.7435 31.9184 20.6464 31.9009 20.5831 31.8839C20.3378 31.8182 20.249 31.6587 20.3169 31.4055C20.3911 31.1285 20.6063 31.0377 20.9624 31.1331C20.994 31.1416 21.0444 31.1594 21.1135 31.1864L21.5163 31.3452C21.7156 31.424 21.9063 31.4879 22.0884 31.5366C22.2387 31.5769 22.4448 31.6152 22.7065 31.6514C22.9761 31.6897 23.1703 31.7248 23.289 31.7566C23.5976 31.8393 23.7514 32.0883 23.7504 32.5036L23.7508 32.8345ZM36.118 42.2934L36.0024 41.0156C35.9888 40.8762 35.9586 40.7833 35.9117 40.7368C35.8727 40.6924 35.774 40.649 35.6158 40.6066L33.5028 40.0405C33.3445 39.998 33.2263 39.9961 33.1482 40.0345C33.0779 40.075 32.9625 40.2053 32.8018 40.4251L32.2126 41.2469C32.1576 41.3255 32.1195 41.4043 32.0983 41.4835C32.0305 41.7367 32.1509 41.9047 32.4595 41.9874C32.5386 42.0086 32.6515 42.0304 32.7982 42.0527C32.9528 42.0772 33.0657 42.0989 33.137 42.118C33.4614 42.205 33.5865 42.3869 33.5123 42.6639C33.4424 42.925 33.2293 43.0079 32.8732 42.9125C32.8099 42.8955 32.725 42.8643 32.6184 42.8188L32.0472 42.5766C31.9406 42.5311 31.7607 42.4744 31.5075 42.4066C31.2305 42.3324 31.0345 42.2883 30.9195 42.2745L30.4018 42.2121C30.1718 42.1844 30.0053 42.1567 29.9024 42.1292C29.5938 42.0465 29.4744 41.8746 29.5444 41.6134C29.6186 41.3364 29.8061 41.2382 30.1068 41.3188C30.1701 41.3358 30.2165 41.3525 30.2461 41.3688L30.4004 41.4102C30.6141 41.4674 30.7986 41.4278 30.9539 41.2913C31.0183 41.2407 31.1473 41.076 31.3408 40.797L35.1486 35.4178C35.3642 35.1193 35.6581 35.0199 36.03 35.1196C36.394 35.2172 36.5909 35.448 36.6205 35.8122L37.1677 42.2693C37.2026 42.6773 37.2595 42.9555 37.3385 43.1039C37.4175 43.2522 37.5598 43.354 37.7656 43.4091C37.8289 43.4261 37.8774 43.4349 37.9112 43.4354C38.137 43.479 38.25 43.5008 38.25 43.5008C38.5507 43.5813 38.6671 43.7482 38.5993 44.0015C38.5272 44.2705 38.3408 44.3648 38.04 44.2842C37.953 44.2609 37.8404 44.2222 37.7022 44.1682C37.2184 43.9792 36.8539 43.8519 36.6086 43.7861C36.3158 43.7077 35.8325 43.6121 35.1587 43.4994C34.9883 43.4707 34.8595 43.4447 34.7725 43.4214C34.4559 43.3366 34.3337 43.1596 34.4058 42.8906C34.4779 42.6215 34.688 42.5336 35.0362 42.6269C35.1075 42.646 35.2082 42.6815 35.3385 42.7334C35.4767 42.7874 35.5814 42.8239 35.6527 42.843C35.9138 42.913 36.073 42.8411 36.1303 42.6274C36.1387 42.5958 36.1347 42.4844 36.118 42.2934ZM35.9122 39.6428L35.7217 36.0803L33.7518 39.0639C33.7232 39.1071 33.7079 39.1327 33.7057 39.1406C33.6867 39.2118 33.7365 39.2634 33.8552 39.2952L35.7426 39.8009C35.8375 39.8263 35.8935 39.8074 35.9105 39.7441C35.9147 39.7283 35.9153 39.6945 35.9122 39.6428ZM42.4915 41.1131L46.6023 39.1611C46.7084 39.1132 46.77 39.0576 46.7869 38.9943C46.8103 38.9072 46.7467 38.8436 46.5964 38.8033C46.5331 38.7863 46.4885 38.7786 46.4626 38.7802C46.1693 38.7355 45.9553 38.6951 45.8208 38.6591C45.5359 38.5827 45.4305 38.4061 45.5048 38.1291C45.5747 37.868 45.7799 37.783 46.1202 37.8742C46.3022 37.9229 46.4623 37.9743 46.6005 38.0283L47.2105 38.2681C47.479 38.374 47.6845 38.446 47.8269 38.4842C48.1118 38.5605 48.4725 38.6232 48.9089 38.6723C49.131 38.6979 49.2935 38.7245 49.3964 38.752C49.6971 38.8326 49.8114 39.0074 49.7393 39.2765C49.6672 39.5455 49.4927 39.643 49.2157 39.5688C49.192 39.5624 49.1535 39.5478 49.1002 39.5251C49.0448 39.5102 49.0013 39.4986 48.9696 39.4901C48.9322 39.4716 48.8739 39.4517 48.7948 39.4305C48.494 39.3499 48.1985 39.3768 47.908 39.511L45.162 40.7854C45.0458 40.8391 44.9792 40.8976 44.9623 40.9609C44.9517 41.0004 44.9732 41.0783 45.0269 41.1945L45.1318 41.5152L46.3377 44.6119C46.6597 45.4361 46.9473 45.8821 47.2006 45.95C47.2164 45.9542 47.2412 45.9566 47.275 45.9572C47.3066 45.9656 47.3264 45.9709 47.3343 45.9731C47.5543 46.0066 47.6881 46.0297 47.7356 46.0424C48.0205 46.1188 48.1269 46.2915 48.0548 46.5605C47.9827 46.8296 47.7923 46.9228 47.4837 46.8401C47.4837 46.8401 47.2922 46.7633 46.9092 46.6098C46.6249 46.4997 46.2968 46.3948 45.9248 46.2952C45.4975 46.1806 45.044 46.0846 44.5644 46.007C44.2473 45.9559 44.0689 45.9251 44.0294 45.9145C43.7366 45.836 43.6252 45.6662 43.6951 45.4051C43.7715 45.1202 43.9639 45.0191 44.2726 45.1018C44.3596 45.1251 44.4802 45.1659 44.6342 45.2241C44.9344 45.3385 45.1082 45.402 45.1556 45.4147C45.3456 45.4656 45.4511 45.4515 45.4723 45.3724C45.4872 45.317 45.4717 45.2323 45.4259 45.1182L44.0228 41.5234C43.9922 41.4473 43.9572 41.404 43.9176 41.3934C43.886 41.3849 43.826 41.4028 43.7379 41.447L42.1988 42.2052C42.1528 42.3455 42.1053 42.5066 42.0566 42.6887C41.8721 43.3771 41.7774 43.7462 41.7726 43.7958C41.7151 44.2638 41.8525 44.5424 42.1849 44.6314C42.2323 44.6442 42.3226 44.6556 42.4555 44.6658C42.5885 44.676 42.6985 44.6927 42.7856 44.7161C42.8885 44.7436 42.9649 44.8065 43.0149 44.9048C43.0671 44.9951 43.0783 45.0956 43.0486 45.2064C42.9744 45.4834 42.7632 45.5752 42.415 45.4819C42.3992 45.4777 42.3715 45.4703 42.3319 45.4597C42.3024 45.4433 42.2757 45.4319 42.252 45.4255L41.6127 45.1524C41.4529 45.0842 41.1988 45.0034 40.8506 44.9101C40.5974 44.8422 40.3845 44.7979 40.212 44.7771L39.5336 44.6971C39.5178 44.6929 39.493 44.6905 39.4592 44.6899C39.4276 44.6814 39.4038 44.6751 39.388 44.6708C39.0319 44.5754 38.891 44.3892 38.9652 44.1122C39.033 43.859 39.1896 43.7653 39.4349 43.831C39.5062 43.8501 39.6098 43.8906 39.7459 43.9525C39.8366 43.9938 39.9176 44.0239 39.9888 44.043C40.3845 44.149 40.6619 43.9053 40.8209 43.3118C40.8166 43.3276 40.8948 43.0517 41.0554 42.484C41.0554 42.484 41.1487 42.1358 41.3353 41.4394L41.6025 40.4423C41.7912 39.738 41.8856 39.3858 41.8856 39.3858L42.0963 38.5517C42.2554 37.9582 42.1371 37.6084 41.7414 37.5024C41.6622 37.4812 41.576 37.4708 41.4825 37.4712C41.3337 37.4568 41.2237 37.44 41.1525 37.4209C40.8993 37.3531 40.8076 37.1886 40.8776 36.9274C40.9518 36.6505 41.167 36.5597 41.5231 36.6551C41.5627 36.6657 41.6131 36.6834 41.6742 36.7083L42.2249 36.9322C42.4697 37.0317 42.6791 37.1048 42.8532 37.1515C43.0669 37.2087 43.3938 37.2708 43.8338 37.3379C44.2739 37.4049 44.5256 37.4469 44.5889 37.4638C44.9212 37.5529 45.0503 37.7359 44.9761 38.0129C44.9464 38.1237 44.8854 38.2091 44.7929 38.2692C44.7026 38.3213 44.606 38.3336 44.5032 38.306C44.424 38.2848 44.3204 38.2443 44.1922 38.1845C44.141 38.1539 44.0601 38.1237 43.9493 38.094C43.6723 38.0198 43.4717 38.0721 43.3475 38.2508C43.2253 38.4217 43.0675 38.884 42.874 39.6379L42.4915 41.1131ZM51.6458 41.0978C51.8027 40.5121 51.6794 40.1653 51.2758 40.0571C51.165 40.0274 51.0798 40.0131 51.0201 40.0141C50.8871 40.0039 50.7771 39.9871 50.6901 39.9638C50.5872 39.9362 50.5097 39.8773 50.4576 39.787C50.4075 39.6888 50.3974 39.5843 50.4271 39.4735C50.5013 39.1965 50.7046 39.1025 51.0369 39.1916C51.0449 39.1937 51.1031 39.2136 51.2118 39.2512C52.3777 39.6484 52.921 39.8364 52.8419 39.8152C52.921 39.8364 52.9606 39.847 52.9606 39.847L55.8436 40.5304C55.899 40.5453 56.108 40.5885 56.4704 40.6602C56.5992 40.6862 56.715 40.713 56.8179 40.7406C57.2294 40.8509 57.3864 41.088 57.2888 41.452C57.2718 41.5153 57.2019 41.7129 57.0791 42.0447C56.9875 42.2916 56.9131 42.5218 56.8558 42.7355C56.7816 43.0125 56.7376 43.2085 56.7237 43.3235C56.6939 43.5615 56.6641 43.7359 56.6344 43.8467C56.5539 44.1474 56.3711 44.2596 56.0862 44.1833C55.8013 44.1069 55.7151 43.859 55.8275 43.4396L55.9929 42.8224C56.171 42.1576 56.1375 41.7288 55.8923 41.5359C55.7099 41.3937 55.1913 41.2081 54.3366 40.9791C53.7748 40.8285 53.4392 40.7513 53.33 40.7475C52.9664 40.7434 52.7326 40.9352 52.6287 41.323L52.4856 41.8571C52.4686 41.9204 52.4453 42.0075 52.4156 42.1183C52.378 42.2269 52.3528 42.305 52.3401 42.3525L52.2988 42.5068C52.214 42.8234 52.2364 43.0245 52.3661 43.1101C52.4173 43.1408 52.5101 43.1741 52.6447 43.2102L53.1313 43.3406C53.6299 43.4742 53.9248 43.3708 54.016 43.0306C54.0414 42.9356 54.0624 42.8097 54.0789 42.653C54.0955 42.4963 54.1197 42.3586 54.1515 42.2399C54.2363 41.9233 54.4211 41.8032 54.706 41.8796C54.9909 41.9559 55.0878 42.1642 54.9966 42.5045C54.9796 42.5678 54.8862 42.8057 54.7163 43.2182C54.5713 43.5695 54.4617 43.8837 54.3875 44.1606C54.345 44.3189 54.2856 44.6041 54.2091 45.0162C54.2001 45.0816 54.1827 45.2254 54.1571 45.4475C54.1342 45.628 54.109 45.7697 54.0814 45.8725C54.0051 46.1574 53.8245 46.2617 53.5396 46.1854C53.2626 46.1112 53.1686 45.9079 53.2577 45.5755C53.281 45.4884 53.3229 45.3639 53.3832 45.202C53.4515 45.0422 53.4973 44.9187 53.5206 44.8317C53.6118 44.4914 53.4319 44.2608 52.9808 44.14L52.4466 43.9968C52.2171 43.9353 52.0641 43.9367 51.9875 44.001C51.9188 44.0674 51.8494 44.2312 51.7795 44.4924L51.5823 45.2283C51.5483 45.355 51.5067 45.5262 51.4574 45.742C51.3953 46.0052 51.3526 46.1804 51.3293 46.2674C51.2524 46.5861 51.2627 46.8009 51.3602 46.9118C51.4324 46.9906 51.6307 47.0734 51.9552 47.1603L53.5696 47.5929C54.0365 47.718 54.375 47.7366 54.5851 47.6487C54.7974 47.553 54.9544 47.3151 55.0562 46.9353C55.088 46.8166 55.1268 46.6403 55.1724 46.4066C55.2281 46.1671 55.2719 45.988 55.3037 45.8693C55.3991 45.5131 55.5893 45.3733 55.8742 45.4496C56.1749 45.5302 56.2765 45.7525 56.1789 46.1165C56.1408 46.2589 56.0745 46.4744 55.9802 46.763C55.886 47.0516 55.8197 47.2671 55.7816 47.4095C55.7519 47.5203 55.7113 47.6876 55.6598 47.9113C55.6184 48.1292 55.5829 48.2935 55.5532 48.4043C55.4535 48.7763 55.2217 48.9135 54.8576 48.8159C54.7706 48.7926 54.6342 48.7476 54.4485 48.6809C54.3557 48.6475 54.1827 48.5969 53.9294 48.529C53.9848 48.5439 53.6783 48.4533 53.0099 48.2572C52.3415 48.0611 51.7619 47.8974 51.2713 47.7659C50.5274 47.5666 49.793 47.3952 49.068 47.2519C49.0364 47.2434 48.9997 47.2378 48.958 47.2351C48.9185 47.2245 48.8947 47.2182 48.8868 47.216C48.5544 47.127 48.4264 46.94 48.5027 46.6551C48.5706 46.4019 48.7272 46.3081 48.9725 46.3739C49.0121 46.3845 49.1168 46.421 49.2867 46.4835C49.3673 46.5305 49.4473 46.5647 49.5264 46.5859C49.93 46.694 50.2113 46.4513 50.3703 45.8578L51.6458 41.0978Z" fill="black"/>
<path d="M77.7219 38.5024L71.3011 36.782L76.7109 27.7149L60.1431 37.6329L66.9416 39.4546L60.8001 49.5332L77.7219 38.5024Z" fill="white" stroke="black" stroke-width="1.53615" stroke-linecap="round" stroke-linejoin="round"/>
<path d="M50.0466 25.454L53.7157 26.4372L53.6658 20.2677L58.981 30.0962L55.0961 29.0553L55.2149 35.9501L50.0466 25.454Z" fill="white" stroke="black" stroke-width="1.53615" stroke-linecap="round" stroke-linejoin="round"/>
</svg>
